:FULLY-SPECIFIED
:FORCE-ALL-JOINTS-BE-3DOF
:DEGREES
1053
root 1.20737 15.1592 32.5515 4.90271 -3.42944 3.46363
lfemur 8.73886 0.497324 5.63614
ltibia 0.113005 -0 0
lfoot -30.4366 -11.2062 -0.00028269
ltoes -34.1905 0 0
rfemur -31.0866 -15.673 -6.32042
rtibia 50.0179 -0 0
rfoot -21.8573 5.46249 -9.35795e-006
rtoes -40.9326 0 0
lowerback -1.82413 -0.0539305 -0.259303
upperback -0.48704 -0.0343176 -6.04654
thorax 0.519484 -0.0189485 -6.12199
lowerneck -6.97859 0.759314 6.56796
upperneck 1.24337 0.330814 3.65134
head 1.57556 0.289714 0.0477604
lclavicle -5.76476e-015 4.77083e-014 0
lhumerus -58.7053 -46.8391 115.402
lradius 55.8023 -0 0
lwrist 25.5294 0 0
lhand 37.42 25.3254 -1.21049e-005
lfingers 7.12502 -0 0
lthumb 60.2243 38.868 -1.35227e-005
rclavicle -5.76476e-015 4.77083e-014 0
rhumerus 2.17037 -23.5223 0.606252
rradius 27.4921 -0 0
rwrist -9.73402 0 0
rhand -30.5327 -42.0464 -3.78412e-005
rfingers 7.12502 -0 0
rthumb -3.8319 -71.992 -3.69059e-005
1054
root 1.20975 15.1595 32.5562 4.90673 -3.43226 3.45508
lfemur 8.72044 0.503682 5.62404
ltibia 0.181546 -0 0
lfoot -30.48 -11.1932 -0.000439445
ltoes -34.19 0 0
rfemur -31.0617 -15.6521 -6.32676
rtibia 50.0004 -0 0
rfoot -21.8497 5.46026 -1.37066e-005
rtoes -40.9099 0 0
lowerback -1.83726 -0.0543286 -0.272812
upperback -0.487812 -0.0341834 -6.04151
thorax 0.526105 -0.018809 -6.10893
lowerneck -6.9794 0.756062 6.56424
upperneck 1.24451 0.326541 3.65517
head 1.57598 0.287695 0.0494397
lclavicle -5.76476e-015 4.77083e-014 0
lhumerus -58.7001 -46.8392 115.408
lradius 55.8001 -0 0
lwrist 25.5357 0 0
lhand 37.4256 25.3273 -1.89105e-005
lfingers 7.12502 -0 0
lthumb 60.229 38.8648 -2.08886e-005
rclavicle -5.76476e-015 4.77083e-014 0
rhumerus 2.15837 -23.5014 0.610907
rradius 27.4943 -0 0
rwrist -9.71384 0 0
rhand -30.538 -42.0254 -5.62993e-005
rfingers 7.12502 -0 0
rthumb -3.83704 -71.9709 -5.49423e-005
1055
root 1.21222 15.1599 32.561 4.91094 -3.43543 3.44573
lfemur 8.69949 0.510625 5.61104
ltibia 0.257245 -0 0
lfoot -30.5274 -11.1782 -0.000599576
ltoes -34.1901 0 0
rfemur -31.0353 -15.63 -6.3329
rtibia 49.9816 -0 0
rfoot -21.8423 5.45757 -1.76356e-005
rtoes -40.8873 0 0
lowerback -1.85096 -0.054865 -0.286627
upperback -0.488749 -0.0342164 -6.03584
thorax 0.532859 -0.0187557 -6.09503
lowerneck -6.98079 0.752841 6.55965
upperneck 1.24707 0.322249 3.65925
head 1.57697 0.285724 0.0513443
lclavicle -5.76476e-015 4.77083e-014 0
lhumerus -58.6943 -46.8387 115.414
lradius 55.7974 -0 0
lwrist 25.5419 0 0
lhand 37.4316 25.3287 -2.60401e-005
lfingers 7.12502 -0 0
lthumb 60.2341 38.8608 -2.83714e-005
rclavicle -5.76476e-015 4.77083e-014 0
rhumerus 2.14674 -23.4792 0.614876
rradius 27.4967 -0 0
rwrist -9.69208 0 0
rhand -30.5442 -42.004 -7.347e-005
rfingers 7.12502 -0 0
rthumb -3.84295 -71.9494 -7.17471e-005
1056
root 1.21477 15.1602 32.5661 4.91528 -3.43892 3.43566
lfemur 8.67616 0.51809 5.59728
ltibia 0.33945 -0 0
lfoot -30.5783 -11.1614 -0.000757852
ltoes -34.1908 0 0
rfemur -31.0077 -15.6071 -6.33877
rtibia 49.9617 -0 0
rfoot -21.835 5.45444 -2.10133e-005
rtoes -40.8651 0 0
lowerback -1.86507 -0.0555392 -0.300582
upperback -0.489845 -0.0344236 -6.02958
thorax 0.539665 -0.0187934 -6.08042
lowerneck -6.98277 0.749692 6.55421
upperneck 1.25109 0.317992 3.66353
head 1.57854 0.283829 0.0534599
lclavicle -5.76476e-015 4.77083e-014 0
lhumerus -58.6878 -46.8377 115.421
lradius 55.7943 -0 0
lwrist 25.5478 0 0
lhand 37.4379 25.3295 -3.33326e-005
lfingers 7.12502 -0 0
lthumb 60.2395 38.8558 -3.57491e-005
rclavicle -5.76476e-015 4.77083e-014 0
rhumerus 2.13564 -23.456 0.618078
rradius 27.4994 -0 0
rwrist -9.66896 0 0
rhand -30.551 -41.9825 -8.86979e-005
rfingers 7.12502 -0 0
rthumb -3.84957 -71.9278 -8.66806e-005
1057
root 1.21736 15.1606 32.5712 4.9197 -3.4427 3.42496
lfemur 8.6506 0.526013 5.58287
ltibia 0.427512 -0 0
lfoot -30.6323 -11.1429 -0.00090912
ltoes -34.1922 0 0
rfemur -30.9793 -15.5835 -6.34426
rtibia 49.9409 -0 0
rfoot -21.8281 5.45088 -2.37267e-005
rtoes -40.8437 0 0
lowerback -1.87945 -0.0563505 -0.314514
upperback -0.491097 -0.034812 -6.02277
thorax 0.546441 -0.0189265 -6.06524
lowerneck -6.98535 0.746658 6.54793
upperneck 1.2566 0.313824 3.66797
head 1.5807 0.282038 0.0557719
lclavicle -5.76476e-015 4.77083e-014 0
lhumerus -58.6807 -46.8362 115.429
lradius 55.7906 -0 0
lwrist 25.5535 0 0
lhand 37.4444 25.3296 -4.06062e-005
lfingers 7.12502 -0 0
lthumb 60.245 38.8501 -4.27991e-005
rclavicle -5.76476e-015 4.77083e-014 0
rhumerus 2.12525 -23.4319 0.620431
rradius 27.5022 -0 0
rwrist -9.64467 0 0
rhand -30.5586 -41.9611 -0.000101413
rfingers 7.12502 -0 0
rthumb -3.85687 -71.9062 -9.91849e-005
1058
root 1.21997 15.161 32.5765 4.92418 -3.44676 3.41372
lfemur 8.62298 0.534329 5.56794
ltibia 0.520779 -0 0
lfoot -30.6889 -11.1227 -0.00104841
ltoes -34.1942 0 0
rfemur -30.9501 -15.5595 -6.3493
rtibia 49.9194 -0 0
rfoot -21.8216 5.44689 -2.56853e-005
rtoes -40.8233 0 0
lowerback -1.89394 -0.0572981 -0.32826
upperback -0.492498 -0.0353888 -6.01545
thorax 0.553108 -0.0191596 -6.04964
lowerneck -6.98854 0.743782 6.54084
upperneck 1.26363 0.309799 3.67253
head 1.58347 0.280378 0.0582662
lclavicle -5.76476e-015 4.77083e-014 0
lhumerus -58.673 -46.834 115.437
lradius 55.7865 -0 0
lwrist 25.5587 0 0
lhand 37.451 25.3291 -4.76612e-005
lfingers 7.12502 -0 0
lthumb 60.2507 38.8435 -4.93021e-005
rclavicle -5.76476e-015 4.77083e-014 0
rhumerus 2.11573 -23.4072 0.621856
rradius 27.5052 -0 0
rwrist -9.61943 0 0
rhand -30.5668 -41.9401 -0.000111146
rfingers 7.12502 -0 0
rthumb -3.8648 -71.885 -0.000108801
1059
root 1.22257 15.1615 32.5818 4.92865 -3.45107 3.40201
lfemur 8.59344 0.542976 5.55262
ltibia 0.618602 -0 0
lfoot -30.7477 -11.101 -0.00117101
ltoes -34.1969 0 0
rfemur -30.9206 -15.5353 -6.35379
rtibia 49.8973 -0 0
rfoot -21.8156 5.44251 -2.68242e-005
rtoes -40.8042 0 0
lowerback -1.9084 -0.0583808 -0.341655
upperback -0.494046 -0.036161 -6.00768
thorax 0.559583 -0.0194971 -6.03375
lowerneck -6.99234 0.741107 6.53295
upperneck 1.27221 0.305972 3.67716
head 1.58685 0.278876 0.0609283
lclavicle -5.76476e-015 4.77083e-014 0
lhumerus -58.6649 -46.8313 115.444
lradius 55.7819 -0 0
lwrist 25.5635 0 0
lhand 37.4578 25.3279 -5.42825e-005
lfingers 7.12502 -0 0
lthumb 60.2565 38.836 -5.50462e-005
rclavicle -5.76476e-015 4.77083e-014 0
rhumerus 2.10725 -23.3822 0.622271
rradius 27.5084 -0 0
rwrist -9.59344 0 0
rhand -30.5756 -41.9197 -0.000117545
rfingers 7.12502 -0 0
rthumb -3.87333 -71.8645 -0.00011518
1060
root 1.22512 15.1619 32.5871 4.93307 -3.4556 3.38992
lfemur 8.56214 0.551889 5.53703
ltibia 0.720328 -0 0
lfoot -30.8083 -11.0779 -0.00127256
ltoes -34.2004 0 0
rfemur -30.891 -15.5112 -6.35765
rtibia 49.8749 -0 0
rfoot -21.8102 5.43773 -2.7107e-005
rtoes -40.7866 0 0
lowerback -1.92267 -0.0595976 -0.354536
upperback -0.495734 -0.0371356 -5.99948
thorax 0.565786 -0.0199435 -6.01772
lowerneck -6.99678 0.738674 6.52429
upperneck 1.28238 0.302396 3.68183
head 1.59086 0.27756 0.0637438
lclavicle -5.76476e-015 4.77083e-014 0
lhumerus -58.6563 -46.828 115.452
lradius 55.7768 -0 0
lwrist 25.5677 0 0
lhand 37.4647 25.3259 -6.02429e-005
lfingers 7.12502 -0 0
lthumb 60.2623 38.8278 -5.98306e-005
rclavicle -5.76476e-015 4.77083e-014 0
rhumerus 2.09996 -23.357 0.621595
rradius 27.5116 -0 0
rwrist -9.56692 0 0
rhand -30.585 -41.9003 -0.000120385
rfingers 7.12502 -0 0
rthumb -3.88241 -71.8448 -0.000118098
1061
root 1.22761 15.1624 32.5923 4.9374 -3.46033 3.37754
lfemur 8.52923 0.561006 5.52131
ltibia 0.825308 -0 0
lfoot -30.8702 -11.0534 -0.00134914
ltoes -34.2046 0 0
rfemur -30.8616 -15.4874 -6.3608
rtibia 49.8523 -0 0
rfoot -21.8056 5.43258 -2.65292e-005
rtoes -40.771 0 0
lowerback -1.9366 -0.0609472 -0.366738
upperback -0.497559 -0.0383197 -5.99092
thorax 0.571637 -0.0205029 -6.00169
lowerneck -7.00184 0.736528 6.51487
upperneck 1.29416 0.299126 3.68649
head 1.59552 0.276458 0.0666985
lclavicle -5.76476e-015 4.77083e-014 0
lhumerus -58.6472 -46.8241 115.461
lradius 55.7713 -0 0
lwrist 25.5713 0 0
lhand 37.4715 25.3232 -6.53064e-005
lfingers 7.12502 -0 0
lthumb 60.2681 38.8188 -6.34698e-005
rclavicle -5.76476e-015 4.77083e-014 0
rhumerus 2.09404 -23.3319 0.61975
rradius 27.515 -0 0
rwrist -9.54007 0 0
rhand -30.595 -41.8819 -0.00011958
rfingers 7.12502 -0 0
rthumb -3.892 -71.8263 -0.000117466
1062
root 1.23001 15.1629 32.5973 4.94159 -3.46523 3.36495
lfemur 8.49488 0.570263 5.50557
ltibia 0.932891 -0 0
lfoot -30.933 -11.0277 -0.00139729
ltoes -34.2096 0 0
rfemur -30.8326 -15.4641 -6.36314
rtibia 49.8297 -0 0
rfoot -21.8017 5.42707 -2.512e-005
rtoes -40.7576 0 0
lowerback -1.95005 -0.062428 -0.378099
upperback -0.499516 -0.0397203 -5.98202
thorax 0.577054 -0.0211796 -5.98579
lowerneck -7.00755 0.734709 6.50472
upperneck 1.30759 0.296216 3.69111
head 1.60083 0.275597 0.0697781
lclavicle -5.76476e-015 4.77083e-014 0
lhumerus -58.6378 -46.8195 115.469
lradius 55.7654 -0 0
lwrist 25.5741 0 0
lhand 37.4783 25.3196 -6.92325e-005
lfingers 7.12502 -0 0
lthumb 60.2739 38.809 -6.57963e-005
rclavicle -5.76476e-015 4.77083e-014 0
rhumerus 2.08965 -23.3071 0.616655
rradius 27.5185 -0 0
rwrist -9.5131 0 0
rhand -30.6054 -41.865 -0.00011519
rfingers 7.12502 -0 0
rthumb -3.90206 -71.8092 -0.000113335
1063
root 1.23228 15.1634 32.6022 4.94559 -3.47027 3.35223
lfemur 8.45923 0.579597 5.48994
ltibia 1.04243 -0 0
lfoot -30.9963 -11.001 -0.00141412
ltoes -34.2154 0 0
rfemur -30.8043 -15.4416 -6.36459
rtibia 49.8073 -0 0
rfoot -21.7988 5.42121 -2.29452e-005
rtoes -40.7467 0 0
lowerback -1.96286 -0.0640386 -0.388454
upperback -0.5016 -0.0413446 -5.97284
thorax 0.581956 -0.0219777 -5.97018
lowerneck -7.01392 0.73326 6.49385
upperneck 1.3227 0.293719 3.69563
head 1.60681 0.275003 0.0729681
lclavicle -5.76476e-015 4.77083e-014 0
lhumerus -58.6281 -46.8142 115.477
lradius 55.759 -0 0
lwrist 25.5762 0 0
lhand 37.4849 25.3151 -7.17804e-005
lfingers 7.12502 -0 0
lthumb 60.2796 38.7985 -6.66652e-005
rclavicle -5.76476e-015 4.77083e-014 0
rhumerus 2.08695 -23.2828 0.612231
rradius 27.522 -0 0
rwrist -9.48622 0 0
rhand -30.6162 -41.8498 -0.000107431
rfingers 7.12502 -0 0
rthumb -3.91254 -71.7937 -0.000105906
1064
root 1.23441 15.1639 32.6069 4.94937 -3.47544 3.33947
lfemur 8.42244 0.588946 5.47455
ltibia 1.15326 -0 0
lfoot -31.0597 -10.9732 -0.00139733
ltoes -34.222 0 0
rfemur -30.7771 -15.42 -6.36507
rtibia 49.7853 -0 0
rfoot -21.797 5.41502 -2.01089e-005
rtoes -40.7385 0 0
lowerback -1.97488 -0.0657772 -0.39764
upperback -0.503808 -0.0431995 -5.96342
thorax 0.586263 -0.0229013 -5.95498
lowerneck -7.02094 0.732225 6.48229
upperneck 1.33952 0.29169 3.70002
head 1.61347 0.274706 0.0762544
lclavicle -5.76476e-015 4.77083e-014 0
lhumerus -58.618 -46.8083 115.485
lradius 55.7522 -0 0
lwrist 25.5773 0 0
lhand 37.4913 25.3097 -7.27142e-005
lfingers 7.12502 -0 0
lthumb 60.2851 38.7872 -6.59566e-005
rclavicle -5.76476e-015 4.77083e-014 0
rhumerus 2.08611 -23.2593 0.606398
rradius 27.5256 -0 0
rwrist -9.45964 0 0
rhand -30.6275 -41.8365 -9.66757e-005
rfingers 7.12502 -0 0
rthumb -3.92341 -71.7802 -9.55344e-005
1065
root 1.23636 15.1644 32.6113 4.95286 -3.48071 3.32675
lfemur 8.38468 0.598248 5.45953
ltibia 1.26475 -0 0
lfoot -31.1226 -10.9445 -0.00134526
ltoes -34.2294 0 0
rfemur -30.751 -15.3997 -6.36449
rtibia 49.7638 -0 0
rfoot -21.7962 5.40851 -1.67555e-005
rtoes -40.7335 0 0
lowerback -1.98596 -0.0676422 -0.405492
upperback -0.506133 -0.0452921 -5.9538
thorax 0.589894 -0.0239544 -5.94034
lowerneck -7.02862 0.731645 6.47005
upperneck 1.35807 0.290184 3.70424
head 1.62083 0.274732 0.0796225
lclavicle -5.76476e-015 4.77083e-014 0
lhumerus -58.6077 -46.8017 115.493
lradius 55.7451 -0 0
lwrist 25.5774 0 0
lhand 37.4975 25.3033 -7.18081e-005
lfingers 7.12502 -0 0
lthumb 60.2903 38.7751 -6.35797e-005
rclavicle -5.76476e-015 4.77083e-014 0
rhumerus 2.08729 -23.2367 0.599077
rradius 27.5292 -0 0
rwrist -9.43357 0 0
rhand -30.6391 -41.8254 -8.34568e-005
rfingers 7.12502 -0 0
rthumb -3.93463 -71.7689 -8.2729e-005
